# xmcd
#
# Track frame offsets:
#	150
#	12720
#	25207
#	36220
#	46967
#	59610
#	74237
#	86402
#	99122
#	113440
#	125382
#	136550
#	147407
#	161712
#	173835
#	183432
#	193392
#	202820
#
# Disc length: 2841 seconds
#
# Revision: 0
# Processed by: cddbd v1.5.2PL0 Copyright (c) Steve Scherf et al.
# Submitted via: EZCDAudioConverter 1.0.8.1
#
DISCID=fd0b1712
DTITLE=Slim Whitman - Rose Marie - Disc 6 of 6
DYEAR=1996
DGENRE=Country
TTITLE0=Twilla Lee
TTITLE1=Roll River Roll
TTITLE2=Rose Marie
TTITLE3=Indian Love Call
TTITLE4=Amateur In Love
TTITLE5=Song Of The Old Water Wheel (Water Effect)
TTITLE6=All That I'm Asking Is Sympathy
TTITLE7=How Can I Tell You
TTITLE8=Danny Boy
TTITLE9=Warm, Warm Lips
TTITLE10=Ride Away
TTITLE11=Rose Marie
TTITLE12=Haunted Hungry Heart
TTITLE13=At The Close Of A Long, Long Day
TTITLE14=Unchain My Heart
TTITLE15=Tormented
TTITLE16=Candy Kisses
TTITLE17=Hush-A-Bye
EXTD=
EXTT0=
EXTT1=
EXTT2=
EXTT3=
EXTT4=
EXTT5=
EXTT6=
EXTT7=
EXTT8=
EXTT9=
EXTT10=
EXTT11=
EXTT12=
EXTT13=
EXTT14=
EXTT15=
EXTT16=
EXTT17=
PLAYORDER=
